<svg version="1.1" xmlns="http://www.w3.org/2000/svg" xmlns:xlink="http://www.w3.org/1999/xlink" width="575.01085" height="336.41234" viewBox="0,0,575.01085,336.41234"><g transform="translate(5.94778,-23.33433)"><g data-paper-data="{&quot;isPaintingLayer&quot;:true}" fill-rule="nonzero" stroke="#000000" stroke-width="2" stroke-linecap="butt" stroke-linejoin="miter" stroke-miterlimit="10" stroke-dasharray="" stroke-dashoffset="0" style="mix-blend-mode: normal"><path d="M39.54955,138.95895v-109.60961h52.55255v109.60961z" fill="#00ff43"/><path d="M3.51351,152.47247v-39.03904h130.63063v39.03904z" fill="#00ff43"/><path d="M89.71065,249.13497l-0.26494,109.60928l-52.5524,-0.12703l0.26494,-109.60928z" data-paper-data="{&quot;index&quot;:null}" fill="#00ff43"/><path d="M125.77924,235.7086l-0.09436,39.03893l-130.63025,-0.31575l0.09436,-39.03893z" data-paper-data="{&quot;index&quot;:null}" fill="#00ff43"/><path d="M182.68769,134.94994v-109.6096h52.55255v109.6096z" fill="#ff0000"/><path d="M146.65165,148.46346v-39.03904h130.63063v39.03904z" fill="#ff0000"/><path d="M232.84879,245.12597l-0.26495,109.60929l-52.5524,-0.12703l0.26494,-109.60928z" data-paper-data="{&quot;index&quot;:null}" fill="#ff0000"/><path d="M268.91738,231.6996l-0.09436,39.03892l-130.63024,-0.31575l0.09436,-39.03893z" data-paper-data="{&quot;index&quot;:null}" fill="#ff0000"/><path d="M319.81982,133.94393v-109.6096h52.55255v109.6096z" fill="#525252"/><path d="M283.78379,147.45745v-39.03904h130.63063v39.03904z" fill="#525252"/><path d="M369.98092,244.11996l-0.26495,109.60929l-52.5524,-0.12703l0.26495,-109.60929z" data-paper-data="{&quot;index&quot;:null}" fill="#525252"/><path d="M406.04952,230.69359l-0.09437,39.03893l-130.63024,-0.31575l0.09436,-39.03893z" data-paper-data="{&quot;index&quot;:null}" fill="#525252"/><path d="M473.46847,134.43943v-109.60961h52.55255v109.60961z" fill="#bac700"/><path d="M437.43243,147.95295v-39.03904h130.63063v39.03904z" fill="#bac700"/><path d="M523.62957,244.61546l-0.26494,109.60929l-52.5524,-0.12703l0.26494,-109.60928z" data-paper-data="{&quot;index&quot;:null}" fill="#bac700"/><path d="M559.69816,231.18909l-0.09436,39.03892l-130.63025,-0.31575l0.09436,-39.03892z" data-paper-data="{&quot;index&quot;:null}" fill="#bac700"/></g></g></svg>