<svg version="1.1" xmlns="http://www.w3.org/2000/svg" xmlns:xlink="http://www.w3.org/1999/xlink" width="533.53153" height="405.9039" viewBox="0,0,533.53153,405.9039"><g transform="translate(29.01802,16.69571)"><g data-paper-data="{&quot;isPaintingLayer&quot;:true}" fill-rule="nonzero" stroke-linecap="butt" stroke-linejoin="miter" stroke-miterlimit="10" stroke-dasharray="" stroke-dashoffset="0" style="mix-blend-mode: normal"><path d="M-28.01802,388.20819v-403.9039h531.53153v403.9039z" fill="#000000" stroke="#000000" stroke-width="2"/><path d="M-25.01502,376.19618v-51.05105h521.02102v51.05105z" fill="#236d00" stroke="none" stroke-width="0"/><path d="M119.62312,104.49431c0,3.03373 -0.92128,5.14618 -2.2043,6.61712c-0.04058,1.44169 -0.24674,2.8396 -0.8638,4.12885c-8.09265,16.90831 -31.35289,13.14265 -46.15218,13.08994c-11.76282,-0.0419 -28.7366,2.05488 -38.85277,-7.05833c-5.35046,-4.81999 -7.93775,-12.22871 -10.10027,-19.09772c-1.38496,-4.39919 -0.22619,-9.22169 -0.26724,-13.83356c-0.01818,-2.04269 -0.01629,-32.57636 0.11824,-33.80084c0.95613,-8.70287 0.25377,-18.28225 4.65727,-25.8495c2.41069,-4.14269 8.81198,-3.83457 13.40793,-5.19488c7.0682,-2.09205 14.14364,-4.82801 21.50835,-5.13965c6.56765,-0.27791 12.99624,2.03074 19.42395,3.40763c8.17584,1.75135 17.29478,1.50468 24.36268,5.97194c4.04138,2.55436 4.13045,8.63626 5.82365,13.10734c2.35865,6.22828 4.21211,12.63634 6.31817,18.9545c0,0 3.15908,9.47725 -6.31817,12.63634c-9.47725,3.15908 -12.63634,-6.31817 -12.63634,-6.31817c-2.10606,-6.31817 -4.57636,-12.52638 -6.31817,-18.9545c-0.38077,-1.40523 1.35677,-3.84319 -0.00137,-4.36771c-4.65719,-1.79865 -9.97428,-0.65838 -14.91251,-1.39215c-5.09576,-0.75718 -9.99992,-3.30898 -15.14629,-3.07429c-5.94328,0.27102 -11.39437,3.54598 -17.25816,4.55198c-1.10849,0.19017 -2.95628,-2.13628 -3.20962,-1.04049c-1.04127,4.50382 0.2201,9.24315 0.24447,13.8657c0.02901,5.50423 -0.07013,11.00842 -0.08434,16.51271c-0.01388,5.37466 0.05665,10.74966 0.00004,16.12405c-0.03246,3.08216 -0.85722,6.21779 -0.26724,9.24314c0.59815,3.06726 1.3782,6.55456 3.74575,8.59432c4.39651,3.78782 24.078,2.17893 25.76197,2.17235c5.38452,-0.02104 10.76916,-0.01844 16.15369,0c0.31604,0.00108 11.68574,0.16297 11.53956,-0.75608c-0.16714,-1.05077 -0.50696,-2.06669 -0.76044,-3.10004l12.29757,-9.9899c0,0 9.9899,0 9.9899,9.9899z" fill="#ffffff" stroke="none" stroke-width="0.5"/></g></g></svg>