<svg version="1.1" xmlns="http://www.w3.org/2000/svg" xmlns:xlink="http://www.w3.org/1999/xlink" width="164" height="157" viewBox="0,0,164,157"><g transform="translate(-62,-106.66666)"><g data-paper-data="{&quot;isPaintingLayer&quot;:true}" fill-rule="nonzero" stroke="none" stroke-linecap="butt" stroke-linejoin="miter" stroke-miterlimit="10" stroke-dasharray="" stroke-dashoffset="0" style="mix-blend-mode: normal"><path d="M226,185.16666c0,43.35435 -36.71265,78.5 -82,78.5c-45.28735,0 -82,-35.14565 -82,-78.5c0,-43.35435 36.71265,-78.5 82,-78.5c45.28735,0 82,35.14565 82,78.5z" fill="#236d00" stroke-width="0"/><path d="M120,161.66666c0,8.83656 -7.61116,16 -17,16c-9.38884,0 -17,-7.16344 -17,-16c0,-8.83656 7.61116,-16 17,-16c9.38884,0 17,7.16344 17,16z" fill="#00be7c" stroke-width="0"/><path d="M195,161.66666c0,8.83656 -7.61116,16 -17,16c-9.38884,0 -17,-7.16344 -17,-16c0,-8.83656 7.61116,-16 17,-16c9.38884,0 17,7.16344 17,16z" fill="#00be7c" stroke-width="0"/><path d="M183,183.16666c6.5,0 6.5,6.5 6.5,6.5l-0.08393,4.04118c-0.62895,1.79202 -0.99861,3.69739 -1.88684,5.37607c-0.29031,0.54867 -1.18561,0.5498 -1.52401,1.07019c-0.12946,0.19908 0.53544,0.27859 0.49478,0.51256c-0.4469,2.57184 -0.48803,5.4031 -1.90381,7.59619c-0.54236,0.84014 -2.06431,-0.35282 -3,0c-0.58434,0.22034 1.85235,-0.17866 1.81987,0.44499c-0.10653,2.04563 -0.91774,4.11788 -2.14299,5.75943c-2.31295,3.0988 -5.51655,4.22123 -8.38416,6.40768c-2.75171,2.09808 -5.33051,4.5377 -7.29272,7.3879c-0.90776,0.56851 -2.03759,0.88269 -2.72329,1.70552c-1.03724,1.24469 -1.04557,3.2412 -2.27671,4.29448c-2.03203,1.73845 -4.56836,2.87672 -7.1028,3.72992c-2.80724,0.94504 -8.50583,0.19284 -11.49339,0.17388c-4.80581,-0.03049 -9.70652,-0.73451 -14.21822,-2.39021c-3.27036,-1.20016 -6.40455,-2.74668 -9.55589,-4.2315c-0.94415,-0.44485 -1.70767,-1.29537 -2.71928,-1.55217c-1.75684,-0.44598 -3.85937,0.42044 -5.41349,-0.51234c-2.26833,-1.36145 -3.63131,-3.85531 -5.29311,-5.91378c-2.73236,-3.38456 -7.85758,-9.53138 -9.12612,-14.40661c-0.46134,-1.77301 -0.14033,-3.66165 -0.17388,-5.49339c-0.07931,-4.3301 0,-8.66907 0,-13c0,0 0,-6.5 6.5,-6.5c6.5,0 6.5,6.5 6.5,6.5c0,3 0,6 0,9c0,2.16964 -0.64931,4.38969 -0.17388,6.50661c0.86204,3.83834 4.69755,6.31627 6.87388,9.59339c0.4062,0.61165 0.04441,1.76963 0.70689,2.08622c0.79302,0.37898 1.73303,-0.72231 2.58651,-0.51234c1.88398,0.46349 3.51339,1.64736 5.28072,2.44783c6.44181,2.91766 11.22544,5.4326 18.22589,5.37829c2.33326,-0.0181 4.6684,-0.08996 7,0c0.15887,0.00613 2.04684,0.44536 2.40381,-0.09619c0.74968,-1.13736 0.85122,-2.65904 1.72329,-3.70552c0.85362,-1.02434 2.18448,-1.52965 3.27671,-2.29448c3.62905,-5.66243 9.15325,-8.36822 14.32312,-12.20442c2.13451,-1.58387 0.24732,-5.55479 1.67688,-7.79558c0.33092,-0.5187 0.63033,-0.94534 0.90048,-1.29082c0.13377,-0.891 0.40061,-1.7791 0.69049,-2.60043c0.48779,-1.38208 2.3276,-2.11163 2.58915,-3.55374l-0.08393,-1.95882c0,0 0,-6.5 6.5,-6.5z" fill="#00be7c" stroke-width="0.5"/></g></g></svg>